<svg xmlns="http://www.w3.org/2000/svg" width="421.7" height="91" viewBox="0 0 421.7 91" role="img" aria-label="Svoya OS">
  <title>Svoya OS</title>
  <desc>Svoya OS brand artwork · CC BY-SA 4.0 · outlines from IBM Plex Sans (SIL OFL 1.1, © IBM Corp.)</desc>
  <path id="wordmark" fill="#151515" d="M26 72.2Q17 72.2 10.75 69Q4.5 65.8 0 60.6L8.9 52Q12.5 56.2 16.95 58.4Q21.4 60.6 26.8 60.6Q32.9 60.6 36 57.95Q39.1 55.3 39.1 50.8Q39.1 47.3 37.1 45.1Q35.1 42.9 29.6 41.9L23 40.9Q2.1 37.6 2.1 20.6Q2.1 15.9 3.85 12.1Q5.6 8.3 8.9 5.6Q12.2 2.9 16.85 1.45Q21.5 0 27.4 0Q35.3 0 41.2 2.6Q47.1 5.2 51.3 10.3L42.3 18.8Q39.7 15.6 36 13.6Q32.3 11.6 26.7 11.6Q21 11.6 18.15 13.75Q15.3 15.9 15.3 19.8Q15.3 23.8 17.6 25.7Q19.9 27.6 25 28.5L31.5 29.7Q42.1 31.6 47.15 36.45Q52.2 41.3 52.2 50Q52.2 55 50.45 59.05Q48.7 63.1 45.35 66.05Q42 69 37.15 70.6Q32.3 72.2 26 72.2Z M75.8 71 58.4 18.8H71L78.3 41.3L83.4 59.9H84.1L89.2 41.3L96.3 18.8H108.5L91 71Z M136.9 72.2Q131.3 72.2 126.85 70.3Q122.4 68.4 119.25 64.8Q116.1 61.2 114.4 56.15Q112.7 51.1 112.7 44.8Q112.7 38.5 114.4 33.5Q116.1 28.5 119.25 24.95Q122.4 21.4 126.85 19.5Q131.3 17.6 136.9 17.6Q142.5 17.6 147 19.5Q151.5 21.4 154.65 24.95Q157.8 28.5 159.5 33.5Q161.2 38.5 161.2 44.8Q161.2 51.1 159.5 56.15Q157.8 61.2 154.65 64.8Q151.5 68.4 147 70.3Q142.5 72.2 136.9 72.2ZM136.9 61.9Q142 61.9 144.9 58.8Q147.8 55.7 147.8 49.7V40Q147.8 34.1 144.9 31Q142 27.9 136.9 27.9Q131.9 27.9 129 31Q126.1 34.1 126.1 40V49.7Q126.1 55.7 129 58.8Q131.9 61.9 136.9 61.9Z M203.6 18.8H215.6L194.6 80.3Q193.6 83.1 192.35 85.15Q191.1 87.2 189.4 88.5Q187.7 89.8 185.3 90.4Q182.9 91 179.7 91H172V80.8H181.4L183.8 73.5L165.1 18.8H177.8L186.9 46.4L190.3 59.6H190.9L194.5 46.4Z M261 71Q256.8 71 254.35 68.55Q251.9 66.1 251.3 62H250.7Q249.4 67.1 245.4 69.65Q241.4 72.2 235.5 72.2Q227.5 72.2 223.2 68Q218.9 63.8 218.9 56.8Q218.9 48.7 224.7 44.75Q230.5 40.8 241.2 40.8H250.1V37Q250.1 32.6 247.8 30.2Q245.5 27.8 240.4 27.8Q235.9 27.8 233.15 29.75Q230.4 31.7 228.5 34.4L220.9 27.6Q223.8 23.1 228.6 20.35Q233.4 17.6 241.3 17.6Q251.9 17.6 257.4 22.4Q262.9 27.2 262.9 36.2V60.8H268.1V71ZM239.8 62.9Q244.1 62.9 247.1 61Q250.1 59.1 250.1 55.4V48.5H241.9Q231.9 48.5 231.9 54.9V56.6Q231.9 59.8 233.95 61.35Q236 62.9 239.8 62.9Z M330.3 72.2Q323.4 72.2 317.8 69.9Q312.2 67.6 308.25 63Q304.3 58.4 302.1 51.7Q299.9 45 299.9 36.1Q299.9 27.3 302.1 20.55Q304.3 13.8 308.25 9.2Q312.2 4.6 317.8 2.3Q323.4 0 330.3 0Q337.2 0 342.8 2.3Q348.4 4.6 352.4 9.2Q356.4 13.8 358.55 20.55Q360.7 27.3 360.7 36.1Q360.7 45 358.55 51.7Q356.4 58.4 352.4 63Q348.4 67.6 342.8 69.9Q337.2 72.2 330.3 72.2ZM330.3 60.5Q337.8 60.5 342.25 55.5Q346.7 50.5 346.7 41.5V30.7Q346.7 21.7 342.25 16.7Q337.8 11.7 330.3 11.7Q322.8 11.7 318.35 16.7Q313.9 21.7 313.9 30.7V41.5Q313.9 50.5 318.35 55.5Q322.8 60.5 330.3 60.5Z M395.5 72.2Q386.5 72.2 380.25 69Q374 65.8 369.5 60.6L378.4 52Q382 56.2 386.45 58.4Q390.9 60.6 396.3 60.6Q402.4 60.6 405.5 57.95Q408.6 55.3 408.6 50.8Q408.6 47.3 406.6 45.1Q404.6 42.9 399.1 41.9L392.5 40.9Q371.6 37.6 371.6 20.6Q371.6 15.9 373.35 12.1Q375.1 8.3 378.4 5.6Q381.7 2.9 386.35 1.45Q391 0 396.9 0Q404.8 0 410.7 2.6Q416.6 5.2 420.8 10.3L411.8 18.8Q409.2 15.6 405.5 13.6Q401.8 11.6 396.2 11.6Q390.5 11.6 387.65 13.75Q384.8 15.9 384.8 19.8Q384.8 23.8 387.1 25.7Q389.4 27.6 394.5 28.5L401 29.7Q411.6 31.6 416.65 36.45Q421.7 41.3 421.7 50Q421.7 55 419.95 59.05Q418.2 63.1 414.85 66.05Q411.5 69 406.65 70.6Q401.8 72.2 395.5 72.2Z"/>
</svg>
